<?xml version="1.0" encoding="UTF-8" standalone="no"?>
<!-- Created with Inkscape (http://www.inkscape.org/) -->
<svg
   xmlns:dc="http://purl.org/dc/elements/1.1/"
   xmlns:cc="http://web.resource.org/cc/"
   xmlns:rdf="http://www.w3.org/1999/02/22-rdf-syntax-ns#"
   xmlns:svg="http://www.w3.org/2000/svg"
   xmlns="http://www.w3.org/2000/svg"
   xmlns:sodipodi="http://sodipodi.sourceforge.net/DTD/sodipodi-0.dtd"
   xmlns:inkscape="http://www.inkscape.org/namespaces/inkscape"
   id="svg5631"
   sodipodi:version="0.32"
   inkscape:version="0.45.1"
   width="550"
   height="417"
   version="1.0"
   sodipodi:docbase="/Users/greg/Desktop/imgtoconvert"
   sodipodi:docname="childphotographswomansil.svg"
   inkscape:output_extension="org.inkscape.output.svg.inkscape">
  <metadata
     id="metadata5636">
    <rdf:RDF>
      <cc:Work
         rdf:about="">
        <dc:format>image/svg+xml</dc:format>
        <dc:type
           rdf:resource="http://purl.org/dc/dcmitype/StillImage" />
      </cc:Work>
    </rdf:RDF>
  </metadata>
  <defs
     id="defs5634" />
  <sodipodi:namedview
     inkscape:window-height="581"
     inkscape:window-width="697"
     inkscape:pageshadow="2"
     inkscape:pageopacity="0.0"
     guidetolerance="10.0"
     gridtolerance="10.0"
     objecttolerance="10.0"
     borderopacity="1.0"
     bordercolor="#666666"
     pagecolor="#ffffff"
     id="base"
     inkscape:zoom="0.90647482"
     inkscape:cx="277.78386"
     inkscape:cy="208.5"
     inkscape:window-x="1493"
     inkscape:window-y="80"
     inkscape:current-layer="svg5631" />
  <path
     style="fill:#dddddd"
     d="M 96.934448,404.56534 C 94.385068,403.40853 90.420168,402.5873 87.384448,402.5873 C 80.738128,402.5873 79.793648,401.53325 79.793648,394.11583 C 79.793648,386.99139 76.922898,381.93866 65.628748,369.18456 C 61.153978,364.13135 58.253778,359.75699 56.802998,355.8727 C 53.160718,346.12093 51.691678,343.5873 49.679708,343.5873 C 48.642378,343.5873 47.793648,344.1104 47.793648,344.74975 C 47.793648,346.06693 42.823808,354.10424 38.308668,360.08902 C 33.851008,365.9976 29.496438,376.27389 30.111358,379.43372 C 31.556718,386.86093 34.167108,391.80606 37.971218,394.32351 C 41.967678,396.96824 42.331488,398.21468 39.608318,399.93241 C 37.117148,401.5038 27.216638,397.00842 24.063218,392.87407 C 22.621538,390.98393 19.833608,388.68191 17.867818,387.75847 C 12.897968,385.42387 12.827038,382.81087 17.558928,376.37923 C 22.772138,369.2934 26.439568,360.58718 27.791728,352.0873 C 29.051048,344.17103 32.079098,338.33461 38.473748,331.49822 C 43.441398,326.1874 43.704598,324.31848 40.402578,317.80226 C 35.857048,308.83208 32.656738,300.05844 31.205068,292.5873 C 30.287798,287.86646 28.520258,283.04925 26.435088,279.5873 C 19.439268,267.97234 18.936698,259.71457 24.680838,250.7631 C 30.178828,242.19523 29.984298,230.15775 23.837688,198.58928 C 21.478638,186.47338 21.360188,183.0973 22.955248,173.43882 C 24.276108,165.44074 23.807688,164.62912 17.855528,164.60261 C 9.0601778,164.56344 2.4270478,154.02331 8.2936478,149.40864 C 10.245718,147.87314 10.794588,146.52657 10.797928,143.26472 C 10.800968,140.3059 11.671568,137.77685 13.782398,134.595 C 16.543568,130.43284 16.720438,129.62446 16.189198,123.595 C 14.481188,104.20979 36.510308,94.172837 52.120378,107.22396 C 53.675078,108.5238 55.350278,109.5873 55.843038,109.5873 C 58.163038,109.5873 67.786988,114.99093 68.290078,116.57603 C 68.602248,117.55959 69.968258,119.56267 71.325648,121.02733 C 75.457688,125.48587 74.346018,131.3943 70.121778,127.42584 C 67.153108,124.63691 66.951808,124.91331 66.381368,132.56174 C 65.959908,138.21266 66.177578,139.25486 68.308158,141.78692 C 70.557598,144.46022 70.742688,147.5873 68.651478,147.5873 C 68.110798,147.5873 68.146698,148.37845 68.737458,149.48229 C 69.484288,150.87777 69.377428,151.68784 68.332078,152.55541 C 67.551328,153.20337 67.150078,154.35256 67.440408,155.10915 C 67.959788,156.46262 67.089838,157.86717 63.457118,161.54025 C 61.407108,163.61304 55.928248,164.95992 53.436328,164.00367 C 51.067738,163.09476 50.009458,166.54072 52.171638,168.12174 C 57.126198,171.74461 74.069678,170.39032 75.415208,166.26389 C 75.805568,165.06677 76.174668,156.70334 76.235448,147.67849 C 76.345948,131.26968 76.345948,131.26968 81.819798,126.79354 C 84.830418,124.33166 87.881668,121.47813 88.600358,120.45235 C 89.934938,118.5475 92.535058,118.14332 96.543648,119.21759 C 98.635718,119.77824 98.793648,120.37391 98.793648,127.70393 C 98.793648,136.17475 98.812828,136.21678 101.82099,134.33815 C 103.57476,133.24291 104.12621,133.45852 106.29686,136.08815 C 108.77252,139.0873 108.77252,139.0873 111.96133,135.62203 C 113.82988,133.59148 115.31601,132.65438 115.55077,133.35865 C 117.10623,138.02504 119.50369,139.04869 121.19901,135.77031 C 123.02904,132.23142 125.6401,132.56335 127.80592,136.61022 C 129.23008,139.27129 130.60335,139.09907 131.9756,136.0873 C 133.42423,132.9079 135.30239,132.9079 137.38561,136.0873 C 139.4759,139.27749 141.40361,139.27749 142.20429,136.0873 C 143.02287,132.82583 146.0647,132.82583 148.20169,136.0873 C 150.32202,139.32332 151.3117,139.2384 154.69898,135.5298 C 157.24966,132.73717 157.95947,132.49894 162.89261,132.7798 C 169.00104,133.12757 168.55329,131.6626 168.7209,151.84912 C 168.7935,160.59306 173.7675,163.73649 178.40389,157.96851 C 179.7486,156.29562 181.99102,156.18467 183.52166,157.71531 C 184.359,158.55265 186.79408,157.12578 192.97166,152.17797 C 205.86353,141.85247 235.39548,121.5873 237.55071,121.5873 C 239.14383,121.5873 233.24544,126.54725 225.29365,131.89426 C 220.34365,135.22278 215.84365,138.4675 215.29365,139.10475 C 214.74365,139.742 207.65615,144.67271 199.54365,150.06187 C 178.99758,163.71071 179.29261,165.31067 200.79365,156.84063 C 230.0805,145.30347 243.8771,140.33742 244.60907,141.06938 C 245.39498,141.85529 245.03534,142.02835 234.29365,146.0332 C 218.68806,151.85146 208.73368,155.59257 203.29365,157.68379 C 200.54365,158.74093 195.40306,160.61419 191.87011,161.84658 C 184.30128,164.48681 182.18412,167.2602 188.5096,166.24871 C 196.12991,165.03018 225.49322,162.60655 256.79365,160.61261 C 274.11865,159.50894 289.57228,158.37977 291.13506,158.10334 C 292.69783,157.82691 299.44783,157.3632 306.13506,157.07289 C 312.82228,156.78257 321.21865,156.28905 324.79365,155.97619 C 328.36865,155.66332 340.96865,154.98713 352.79365,154.47354 C 364.61865,153.95996 377.77876,153.27638 382.03833,152.95449 C 386.2979,152.6326 390.5729,152.69876 391.53833,153.10151 C 395.01463,154.55172 387.70092,155.4961 368.37689,156.09221 C 357.88111,156.41599 343.89365,157.1008 337.29365,157.61402 C 330.69365,158.12723 317.43361,158.81489 307.8269,159.14216 C 298.22019,159.46942 290.11434,159.8891 289.81389,160.07479 C 289.51344,160.26048 283.19848,160.67266 275.78064,160.99075 C 262.13194,161.57604 247.87504,162.86228 235.52509,164.62256 C 231.80238,165.15316 223.47738,165.62997 217.02509,165.68212 C 184.28261,165.94677 178.03595,169.11597 194.11662,177.30459 C 198.96097,179.77143 202.70322,182.01107 202.43273,182.28156 C 202.16224,182.55205 197.98174,180.71799 193.14274,178.20588 C 185.86712,174.42883 184.20176,173.89357 183.51941,175.11285 C 182.44938,177.02489 180.37459,176.99222 178.75256,175.03779 C 173.6062,168.83681 169.28794,173.89894 169.64619,185.71285 C 169.99873,197.3384 169.99873,197.3384 166.28744,200.21285 C 164.24623,201.7938 159.84952,205.32689 156.51697,208.06416 C 150.4578,213.04103 150.4578,213.04103 137.62572,212.74129 C 123.55991,212.41274 123.93309,212.22743 125.84002,218.5939 C 128.57357,227.72014 132.78855,245.36255 132.79096,247.68808 C 132.79244,249.1185 133.24445,251.5935 133.79543,253.18808 C 134.34641,254.78265 135.46091,260.8123 136.2721,266.5873 C 138.41994,281.87816 141.50932,295.22361 146.40801,310.37225 C 148.29123,316.19592 148.15085,318.26063 145.83042,318.86743 C 143.03663,319.59803 142.13255,318.05592 139.76749,308.5258 C 138.6157,303.88463 137.02967,297.6123 136.24297,294.5873 C 135.45627,291.5623 134.11567,285.0373 133.26386,280.0873 C 132.41205,275.1373 130.84938,268.3873 129.79125,265.0873 C 128.73312,261.7873 126.47875,253.2373 124.78154,246.0873 C 121.06559,230.43273 115.67237,217.57751 118.17386,230.3373 C 118.47038,231.8498 118.99339,235.7873 119.33612,239.0873 C 119.67884,242.3873 120.79935,251.8373 121.82613,260.0873 C 122.85292,268.3373 124.18668,280.2623 124.79005,286.5873 C 125.39342,292.9123 126.31606,301.64635 126.84037,305.9963 C 128.27312,317.8833 128.14428,319.5873 125.8127,319.5873 C 124.5547,319.5873 123.67207,318.76617 123.3942,317.3373 C 122.38209,312.13272 119.74573,293.36562 118.72333,284.0873 C 118.11727,278.5873 116.93758,268.9123 116.10179,262.5873 C 115.266,256.2623 114.19718,247.2623 113.72663,242.5873 C 112.22765,227.69462 110.53311,216.5873 109.76004,216.5873 C 108.83187,216.5873 108.71634,217.09997 104.80244,238.5873 C 103.04925,248.2123 100.49636,261.4873 99.129338,268.0873 C 97.762328,274.6873 95.551018,286.31042 94.215308,293.91646 C 92.879608,301.5225 90.674278,312.0975 89.314578,317.41646 C 87.954878,322.73542 86.184388,330.9123 85.380158,335.5873 C 84.575928,340.2623 82.992488,349.32538 81.861398,355.72747 C 79.247168,370.52432 81.164828,377.19825 90.728538,386.5873 C 92.689348,388.5123 96.015308,392.01711 98.119538,394.37576 C 100.22379,396.73442 103.67656,399.35688 105.79237,400.20347 C 109.57851,401.71838 111.3424,403.89039 110.23788,405.67754 C 109.25502,407.26784 101.45269,406.61554 96.934448,404.56534 z M 78.138468,348.3373 C 78.453008,345.9998 78.994198,340.9373 79.341108,337.0873 C 79.688018,333.2373 81.462738,321.0873 83.284938,310.0873 C 85.107128,299.0873 86.900098,285.8123 87.269318,280.5873 C 87.638538,275.3623 88.817868,264.5623 89.890038,256.5873 C 90.962218,248.6123 92.122638,235.93304 92.468748,228.41116 C 93.157268,213.4478 93.827428,214.64263 83.976728,213.27071 C 83.252418,213.16983 81.452418,209.51387 79.976728,205.14635 C 76.401108,194.56378 74.451318,194.021 76.924108,204.29657 C 80.537548,219.31206 79.876368,235.77631 75.085228,250.0873 C 71.067768,262.0873 71.067768,262.0873 71.563328,275.33429 C 72.079688,289.13729 71.677528,291.76667 66.684698,307.23142 C 64.716268,313.32843 64.715948,313.42044 66.642308,319.23142 C 67.709998,322.45215 68.854688,327.5623 69.186058,330.5873 C 70.528368,342.84106 77.119528,355.90939 78.138468,348.3373 z M 130.2157,205.11613 C 149.97965,204.56378 149.22406,204.99465 149.12525,194.33329 C 148.97575,178.20308 147.58325,144.07922 147.05444,143.5873 C 146.75882,143.3123 146.83763,154.3373 147.22957,168.0873 C 147.98987,194.75941 147.98006,201.47666 147.17895,202.77289 C 146.90212,203.22082 133.46398,203.5873 117.31642,203.5873 C 101.16886,203.5873 87.248008,203.85945 86.381178,204.19208 C 82.103998,205.83339 87.166738,206.56333 99.609558,206.09934 C 107.13581,205.81869 120.90857,205.37624 130.2157,205.11613 z M 137.04365,197.84807 C 146.77323,197.22892 146.997,197.02824 142.92683,192.57197 C 140.06002,189.43321 140.06002,189.43321 138.03291,192.01026 C 135.5379,195.18215 133.5081,195.28404 131.5182,192.3373 C 129.9988,190.0873 129.9988,190.0873 127.09151,192.8373 C 123.62372,196.11747 122.77508,196.21441 120.52568,193.5873 C 119.58383,192.4873 118.42856,191.5873 117.95843,191.5873 C 117.48829,191.5873 116.28914,192.4873 115.29365,193.5873 C 113.0056,196.11557 111.72539,196.104 108.96264,193.53011 C 106.75451,191.47293 106.75451,191.47293 104.15654,193.51649 C 100.75506,196.1921 99.583688,195.29833 99.847098,190.22832 C 100.20826,183.27682 99.842998,179.5873 98.793648,179.5873 C 97.294398,179.5873 97.513878,195.90752 99.033568,197.42722 C 100.34294,198.73659 119.71115,198.95104 137.04365,197.84807 z M 112.14337,184.47658 C 111.69149,175.79373 110.79365,175.79577 110.79365,184.47965 C 110.79365,188.45378 111.16988,191.47281 111.62972,191.18861 C 112.08956,190.90442 112.3207,187.884 112.14337,184.47658 z M 123.33442,172.79474 C 121.93106,171.39137 121.67138,174.16599 122.44797,182.26632 C 123.29365,191.0873 123.29365,191.0873 123.58442,182.2114 C 123.74434,177.32966 123.63184,173.09216 123.33442,172.79474 z M 135.02711,165.35964 C 134.73084,152.40088 134.15625,143.8632 133.60337,144.2049 C 133.05755,144.54223 132.88306,152.65426 133.17902,163.93256 C 133.45548,174.46767 133.72055,184.6623 133.76807,186.5873 C 133.82812,189.01999 134.109,189.62988 134.68915,188.5873 C 135.14823,187.7623 135.30031,177.30985 135.02711,165.35964 z M 145.16753,169.3373 C 144.8481,158.7498 144.18784,148.7373 143.70029,147.0873 C 142.77046,143.94054 143.35511,170.75252 144.46893,182.3373 C 145.53087,193.38239 145.76278,189.06681 145.16753,169.3373 z M 97.848728,155.93116 C 97.688418,141.7851 97.410718,140.07268 95.689418,142.61626 C 94.531058,144.32799 94.954758,167.42092 96.180928,169.4049 C 97.725838,171.90462 98.004248,169.65534 97.848728,155.93116 z M 176.6132,165.8373 C 176.95234,163.44941 176.59703,163.31516 169.54419,163.16639 C 165.86913,163.08887 164.22563,165.68595 166.50642,167.96673 C 168.33679,169.79711 176.28877,168.12167 176.6132,165.8373 z M 123.79365,153.64632 C 123.79365,148.09768 123.35181,143.43226 122.79365,143.0873 C 122.1511,142.69018 121.79365,146.24358 121.79365,153.02828 C 121.79365,159.40096 122.19012,163.5873 122.79365,163.5873 C 123.39325,163.5873 123.79365,159.60697 123.79365,153.64632 z M 110.93229,145.0873 C 110.12289,141.63472 109.98081,142.39882 109.8941,150.67063 C 109.83885,155.94147 110.13115,160.59445 110.54365,161.0106 C 111.6889,162.16596 111.99509,149.62074 110.93229,145.0873 z M 156.47176,139.59875 C 161.76492,136.56298 164.41702,134.06948 161.09559,135.25144 C 159.10298,135.96053 149.79365,141.7299 149.79365,142.25571 C 149.79365,143.09566 151.69022,142.34109 156.47176,139.59875 z M 26.195218,127.65372 C 30.216408,124.94025 36.158588,121.60162 39.400058,120.23453 C 42.641538,118.86744 47.993648,116.61068 51.293648,115.2195 C 58.153578,112.32757 58.426318,111.8655 54.293648,110.13719 C 50.981798,108.75214 48.292268,109.384 43.758678,112.61221 C 42.233108,113.69851 40.240578,114.5873 39.330848,114.5873 C 38.421108,114.5873 35.790578,116.66162 33.485218,119.19689 C 31.179858,121.73217 26.706148,125.11365 23.543648,126.71129 C 20.381148,128.30893 17.793648,130.28461 17.793648,131.1017 C 17.793648,133.23677 18.119938,133.10287 26.195218,127.65372 z M 36.034328,118.36526 C 36.248638,117.72235 37.680498,116.86029 39.216258,116.44957 C 40.752018,116.03884 42.862958,114.92957 43.907228,113.98451 C 44.951508,113.03946 46.113508,112.57382 46.489448,112.94977 C 47.370928,113.83124 43.305598,116.74158 39.000948,118.31074 C 36.487298,119.22702 35.742518,119.24071 36.034328,118.36526 z M 91.220648,125.03693 C 92.280498,124.251 92.845718,123.30603 92.476688,122.937 C 91.717488,122.1778 81.798568,128.64512 81.795588,129.90128 C 81.793648,130.71719 87.605908,127.71744 91.220648,125.03693 z M 403.79365,399.2974 C 403.79365,398.03795 404.41527,394.55045 405.17502,391.5474 C 405.93477,388.54434 406.856,384.39531 407.2222,382.32731 C 407.58841,380.25932 409.20155,375.78986 410.80698,372.39519 C 415.10168,363.31406 414.55182,352.42752 409.74881,351.44465 C 404.66232,350.40377 404.31343,349.33386 407.19175,343.60324 C 410.88889,336.24241 409.75918,333.27031 402.36509,330.90506 C 396.53234,329.03926 396.34876,324.67221 402.00014,322.22336 C 413.27256,317.33882 415.55739,297.31819 407.25825,276.14971 C 405.95103,272.81538 404.42773,266.7123 403.87315,262.5873 C 403.31857,258.4623 401.74429,251.80621 400.37476,247.796 C 391.57291,222.02272 389.17784,184.22592 395.23357,166.66215 C 399.63161,153.90624 397.97098,149.85409 380.90378,131.69561 C 372.69506,122.96203 368.83524,118.08853 368.34397,115.8373 C 367.48711,111.91078 368.72226,111.92304 354.23289,115.69722 C 333.13964,121.19158 335.7695,121.27289 331.51398,114.99479 C 317.34846,94.096627 320.09522,46.587301 335.46897,46.587301 C 337.98813,46.587301 347.55402,36.045165 351.79454,28.595631 C 353.92113,24.859744 353.59292,28.848775 351.42122,33.132916 C 348.02383,39.834982 349.73942,43.085758 355.5745,41.00275 C 361.68663,38.820841 362.68364,39.572949 357.07611,42.135512 C 351.85857,44.519857 351.85857,44.519857 353.32611,48.679306 C 354.13326,50.967002 354.79365,54.095373 354.79365,55.63124 C 354.79365,60.289869 355.69376,61.306095 361.86394,63.613587 C 365.12528,64.833248 367.79365,66.226287 367.79365,66.709227 C 367.79365,67.980737 366.365,67.799717 361.71457,65.938987 C 358.22077,64.54104 357.46053,64.503066 356.70965,65.688982 C 354.64917,68.943207 355.85474,70.336897 363.91874,74.023057 C 369.61904,76.628737 371.7289,78.052047 370.98858,78.792377 C 370.24825,79.532697 367.96241,78.764267 363.32907,76.217457 C 355.883,72.124587 355.79365,72.097007 355.79365,73.891137 C 355.79365,75.369017 361.88539,81.584677 363.34126,81.592267 C 365.07249,81.601297 370.14799,86.250277 369.12014,86.885517 C 367.7149,87.754007 361.12437,84.047287 355.90286,79.451727 C 353.48793,77.326297 350.87655,75.587297 350.09981,75.587297 C 349.32306,75.587297 347.03196,74.462297 345.00846,73.087297 C 339.20132,69.141247 337.88738,71.912877 341.7216,80.020567 C 343.17772,83.099627 343.33529,84.348387 342.44712,85.770567 C 339.82614,89.967427 336.29107,86.521537 337.27047,80.724517 C 337.95079,76.697717 337.12501,75.146437 335.00019,76.459647 C 331.85695,78.402287 340.70473,100.10714 344.28794,99.243797 C 345.39108,98.978007 352.81865,96.662817 360.79365,94.098917 C 368.76865,91.535017 377.76865,89.209707 380.79365,88.931557 C 391.04116,87.989297 394.18842,86.018187 392.62164,81.523717 C 391.40384,78.030317 389.88385,77.447497 385.29523,78.714477 C 380.6007,80.010697 377.80752,78.304577 375.90272,72.977357 C 375.13771,70.837827 374.06026,68.795597 373.50838,68.439077 C 372.8453,68.010717 372.90977,66.183227 373.69845,63.051079 C 376.05941,53.674879 373.59009,51.042032 365.38744,54.189682 C 364.69215,54.456493 363.07406,53.825198 361.7917,52.786805 C 359.14156,50.640853 359.60918,47.587301 362.58795,47.587301 C 367.06194,47.587301 369.92139,41.917862 366.84952,39.137859 C 365.78024,38.17018 364.76774,36.417532 364.59952,35.243087 C 364.42752,34.042334 363.41829,32.946743 362.29365,32.739908 C 359.4242,32.212182 357.79365,30.637075 357.79365,28.392926 C 357.79365,27.320709 356.60931,24.422516 355.16178,21.952498 C 350.5915,14.153904 354.23409,10.536738 367.06926,10.128125 C 372.75821,9.9470153 374.28179,9.5072293 376.56926,7.3859263 C 385.87535,-1.2441717 394.70116,0.9421493 402.02282,13.691252 C 405.55812,19.847232 405.4352,19.800377 412.37989,17.638945 C 428.72489,12.551811 432.93515,14.374891 427.94124,24.377139 C 426.92242,26.417728 425.54321,30.3151 424.87632,33.037966 C 424.11637,36.140812 422.32458,39.470983 420.07578,41.960142 C 416.48775,45.931655 416.48775,45.931655 419.07754,48.009478 C 422.02597,50.375041 423.87424,54.493905 423.21509,57.229979 C 422.30055,61.02616 424.12978,61.884891 432.69121,61.678542 C 440.79365,61.483256 440.79365,61.483256 440.79365,64.535279 C 440.79365,67.979347 441.84063,68.257247 448.18228,66.496437 C 453.60357,64.991184 457.99464,66.077847 462.83619,70.122847 C 465.46008,72.315047 468.04136,73.587297 469.86521,73.587297 C 473.91824,73.587297 476.05586,77.095307 475.21336,82.364037 C 474.45999,87.075337 476.70743,89.236307 483.43788,90.272117 C 491.81516,91.561367 493.06325,94.596927 489.72919,105.5736 C 486.61661,115.82111 490.26796,120.77207 499.89596,119.35898 C 503.91914,118.7685 503.08247,120.78221 498.71712,122.19622 C 490.06285,124.99949 479.79365,118.73561 479.79365,110.65351 C 479.79365,103.72131 478.52373,101.9096 472.80493,100.68314 C 462.96584,98.573027 459.79365,95.773007 459.79365,89.198357 C 459.79365,85.933487 459.52632,85.627777 456.111,84.987057 C 454.08555,84.607077 451.40074,83.187377 450.14477,81.832147 C 448.10747,79.633877 447.52118,79.486637 444.70888,80.467007 C 442.97511,81.071397 440.48492,81.345717 439.17512,81.076607 C 437.86531,80.807487 435.6572,80.350857 434.26821,80.061867 C 432.87922,79.772877 430.76708,78.560727 429.57456,77.368207 C 428.2344,76.028057 425.47526,74.927947 422.34999,74.487667 C 419.569,74.095887 416.50615,73.459887 415.54365,73.074337 C 414.07485,72.485967 413.79365,72.941247 413.79365,75.907737 C 413.79365,81.192927 417.34575,83.587297 425.18647,83.587297 C 434.13498,83.587297 449.76624,92.691677 457.5009,102.40873 C 459.54914,104.98194 463.26543,109.38805 465.75932,112.20009 C 475.7782,123.49709 478.65673,133.66116 473.46266,139.40054 C 472.54471,140.41487 471.79365,142.20364 471.79365,143.37557 C 471.79365,144.54751 470.6097,146.60418 469.16266,147.94596 C 466.53167,150.38555 466.53167,150.38555 470.77431,153.1932 C 475.01696,156.00085 475.01696,156.00085 476.98871,153.29408 C 479.08658,150.41417 481.63956,149.89928 484.97368,151.68365 C 486.57173,152.5389 488.45376,152.29645 493.53185,150.58116 C 502.87308,147.42586 506.1104,147.55466 510.04162,151.23804 C 518.04294,158.73493 528.53649,159.79027 531.12436,153.35834 C 532.09659,150.94194 531.77891,158.1002 530.74941,161.80709 C 528.13975,171.20359 521.47125,174.38432 513.38967,170.0873 C 504.00722,165.0986 499.53567,167.31532 505.4572,174.01973 C 507.56725,176.40874 510.06905,179.49487 511.01676,180.87781 C 512.82067,183.51012 516.76364,184.46294 527.13863,184.77365 C 533.63347,184.96816 533.78774,186.03107 528.77065,196.01807 C 525.895,201.74231 524.69208,205.27562 525.02535,207.01902 C 525.51125,209.56087 523.60909,210.71572 522.33418,208.65289 C 521.63562,207.52259 511.85756,204.5873 508.79087,204.5873 C 504.53066,204.5873 499.75444,201.43155 497.60974,197.19969 C 494.47126,191.00695 489.62716,184.5873 488.09275,184.5873 C 485.7421,184.5873 485.57833,187.24491 487.67563,191.35595 C 488.78748,193.53536 490.22823,197.51649 490.8773,200.20291 C 493.66401,211.73679 499.16002,216.5873 509.44208,216.5873 C 515.70967,216.5873 515.90479,216.66318 515.22751,218.8373 C 512.98058,226.05011 511.34517,227.5873 505.91841,227.5873 C 502.6191,227.5873 502.37327,227.81919 501.41286,231.8373 C 500.12146,237.24015 510.26026,234.86466 519.94001,227.49644 C 526.2997,222.65544 529.48376,221.34653 528.46928,223.9902 C 527.84015,225.6297 529.73205,232.19263 532.6772,238.5873 C 537.08379,248.15516 533.3797,256.53827 525.40644,255.04248 C 521.34827,254.28116 518.79365,255.68429 518.79365,258.67456 C 518.79365,261.9318 522.36742,262.95104 528.91578,261.56138 C 537.84039,259.66745 540.15408,263.04014 535.79365,271.5873 C 533.5058,276.07185 533.12942,284.63825 534.95282,290.72423 C 536.77271,296.79847 535.04571,299.5873 529.46431,299.5873 C 517.7055,299.5873 514.43803,305.28822 524.54365,308.17263 C 537.20271,311.78586 543.22383,326.3836 534.04365,331.20465 C 530.88011,332.86602 530.21546,333.79277 529.79365,337.13065 C 529.2519,341.41772 528.76779,341.59638 521.89618,340.04523 C 518.49872,339.27831 518.49872,339.27831 519.03107,344.00132 C 519.63783,349.38448 518.87285,350.00736 510.52778,350.92502 C 506.87516,351.32668 505.61049,351.04239 504.22131,349.50737 C 501.78524,346.81554 501.06771,347.03472 496.71028,351.80168 C 492.07607,356.87143 482.08669,358.179 479.24894,354.0873 C 476.66867,350.36686 475.72009,349.5873 473.77328,349.5873 C 472.54595,349.5873 471.60516,350.49012 471.21576,352.04161 C 470.7819,353.77024 469.32442,354.98299 466.28649,356.14318 C 459.08614,358.89302 456.29883,362.57103 457.86767,367.25226 C 459.44177,371.94917 459.27521,375.06169 457.29875,377.88347 C 456.47095,379.06534 455.79365,381.0857 455.79365,382.37316 C 455.79365,384.41174 455.37397,384.67355 452.54365,384.40066 C 449.83434,384.13943 449.29365,383.67448 449.29365,381.60593 C 449.29365,377.99972 446.27617,377.8604 443.35523,381.33174 C 441.69114,383.30941 439.00925,384.75551 434.87279,385.90554 C 421.10553,389.73318 419.9542,386.66762 431.79091,377.69969 C 433.52418,376.3865 436.08814,373.4615 437.48861,371.19969 C 438.88907,368.93787 441.07353,365.9623 442.34296,364.5873 C 447.99644,358.46364 446.00437,352.54321 439.10902,354.97603 C 436.82377,355.78231 434.0771,356.21268 433.0053,355.9324 C 430.4211,355.25661 426.19534,362.68288 424.0972,371.5873 C 423.25483,375.1623 421.54806,380.1123 420.30438,382.5873 C 419.0607,385.0623 417.53225,388.68349 416.90782,390.63438 C 414.78903,397.25405 403.79365,404.51742 403.79365,399.2974 z M 507.79365,185.0873 C 507.79365,184.32722 507.39144,183.45675 506.89985,183.15293 C 506.40826,182.84911 506.07076,183.67938 506.14985,184.99796 C 506.29814,187.47031 507.79365,187.55159 507.79365,185.0873 z M 504.29365,178.5873 C 504.63357,178.0373 504.43513,177.5873 503.85267,177.5873 C 503.27021,177.5873 502.79365,178.0373 502.79365,178.5873 C 502.79365,179.1373 502.99209,179.5873 503.23463,179.5873 C 503.47717,179.5873 503.95373,179.1373 504.29365,178.5873 z M 482.79365,174.5873 C 482.79365,174.0373 482.31709,173.5873 481.73463,173.5873 C 481.15217,173.5873 480.95373,174.0373 481.29365,174.5873 C 481.63357,175.1373 482.11013,175.5873 482.35267,175.5873 C 482.59521,175.5873 482.79365,175.1373 482.79365,174.5873 z M 490.79365,170.5873 C 490.79365,170.0373 490.31709,169.5873 489.73463,169.5873 C 489.15217,169.5873 488.95373,170.0373 489.29365,170.5873 C 489.63357,171.1373 490.11013,171.5873 490.35267,171.5873 C 490.59521,171.5873 490.79365,171.1373 490.79365,170.5873 z M 449.19942,168.06789 C 448.44165,165.0487 450.49222,159.5873 452.38359,159.5873 C 453.17034,159.5873 453.4914,158.96322 453.15528,158.0873 C 452.79372,157.1451 453.16558,156.5873 454.15528,156.5873 C 455.21275,156.5873 455.52131,156.04117 455.09359,154.92656 C 454.58808,153.6092 454.90471,153.38308 456.62498,153.83294 C 457.81775,154.14486 458.79365,153.99219 458.79365,153.49368 C 458.79365,152.99517 458.34365,152.5873 457.79365,152.5873 C 457.24365,152.5873 456.79365,152.08852 456.79365,151.47889 C 456.79365,150.77291 457.79208,150.61532 459.54365,151.04483 C 462.16779,151.68832 462.20212,151.65078 460.29365,150.22466 C 458.52203,148.9008 458.48045,148.65767 459.92955,148.09552 C 461.32635,147.55364 461.14758,147.00338 458.70638,144.3306 C 455.39245,140.70232 455.56527,140.62126 452.78501,147.10779 C 451.61113,149.84652 450.08336,152.7623 449.38997,153.5873 C 446.42604,157.11376 443.77276,165.40217 444.769,168.02246 C 446.13898,171.62578 450.1026,171.66642 449.19942,168.06789 z M 492.79365,168.14632 C 492.79365,167.90378 492.34365,167.42722 491.79365,167.0873 C 491.24365,166.74738 490.79365,166.94582 490.79365,167.52828 C 490.79365,168.11074 491.24365,168.5873 491.79365,168.5873 C 492.34365,168.5873 492.79365,168.38886 492.79365,168.14632 z M 497.36825,164.70801 C 496.62517,163.50568 492.79365,162.57564 492.79365,163.59759 C 492.79365,164.50056 494.55665,165.38496 496.60267,165.50835 C 497.32263,165.55177 497.66714,165.19162 497.36825,164.70801 z M 487.79365,163.5873 C 487.79365,163.0373 487.31709,162.5873 486.73463,162.5873 C 486.15217,162.5873 485.95373,163.0373 486.29365,163.5873 C 486.63357,164.1373 487.11013,164.5873 487.35267,164.5873 C 487.59521,164.5873 487.79365,164.1373 487.79365,163.5873 z M 491.79365,161.5873 C 491.79365,161.0373 491.31709,160.5873 490.73463,160.5873 C 490.15217,160.5873 489.95373,161.0373 490.29365,161.5873 C 490.63357,162.1373 491.11013,162.5873 491.35267,162.5873 C 491.59521,162.5873 491.79365,162.1373 491.79365,161.5873 z M 492.79365,156.92063 C 492.79365,156.00397 492.49755,155.55006 492.13566,155.91196 C 491.77376,156.27385 490.87376,156.06875 490.13566,155.45618 C 488.47088,154.07453 488.34826,155.74191 489.99365,157.3873 C 491.67403,159.06768 492.79365,158.88108 492.79365,156.92063 z M 501.79365,155.02828 C 501.79365,154.17082 501.33631,153.75192 500.77734,154.09738 C 500.21837,154.44284 500.01992,155.1444 500.33636,155.6564 C 501.19359,157.04344 501.79365,156.78481 501.79365,155.02828 z M 450.7448,145.61345 C 454.8158,143.43471 458.56755,132.75302 456.84921,128.23343 C 454.68122,122.53119 441.62377,110.81059 438.57229,111.82775 C 437.79069,112.08829 437.3381,114.53501 437.3084,118.66046 C 437.27535,123.25033 436.62352,126.35576 435.02789,129.52513 C 430.2033,139.10812 441.42901,150.5991 450.7448,145.61345 z M 391.76779,109.42317 C 392.73985,106.8579 394.49333,103.41344 395.66441,101.7688 C 399.78673,95.979537 397.53646,93.996617 390.28343,97.027117 C 383.74318,99.759817 381.08965,107.1513 384.90677,112.00398 C 387.78415,115.66197 389.67294,114.95149 391.76779,109.42317 z M 333.6278,68.647587 C 333.85484,67.096337 333.5343,66.505477 332.6278,66.804247 C 331.89402,67.046087 331.14328,68.271327 330.9595,69.527007 C 330.73246,71.078267 331.053,71.669127 331.9595,71.370357 C 332.69328,71.128517 333.44402,69.903267 333.6278,68.647587 z M 353.79365,65.528284 C 353.79365,63.910743 353.34365,62.587301 352.79365,62.587301 C 352.24365,62.587301 351.79365,64.188859 351.79365,66.146317 C 351.79365,68.264357 352.19853,69.455107 352.79365,69.087297 C 353.34365,68.747387 353.79365,67.145827 353.79365,65.528284 z M 344.79365,67.146317 C 344.79365,66.903777 344.34365,66.427217 343.79365,66.087297 C 343.24365,65.747382 342.79365,65.945827 342.79365,66.528287 C 342.79365,67.110747 343.24365,67.587297 343.79365,67.587297 C 344.34365,67.587297 344.79365,67.388857 344.79365,67.146317 z M 349.01342,63.631329 C 348.41069,59.524677 347.79365,59.785193 347.79365,64.146318 C 347.79365,66.103777 348.16862,67.473587 348.62692,67.190347 C 349.08522,66.907107 349.25914,65.305545 349.01342,63.631329 z M 340.79365,63.646318 C 340.79365,63.128777 340.34365,62.42722 339.79365,62.087301 C 339.24365,61.747382 338.79365,62.170825 338.79365,63.028284 C 338.79365,63.885743 339.24365,64.587301 339.79365,64.587301 C 340.34365,64.587301 340.79365,64.163859 340.79365,63.646318 z M 344.79365,61.087301 C 344.79365,59.712301 344.34365,58.587301 343.79365,58.587301 C 343.24365,58.587301 342.79365,59.712301 342.79365,61.087301 C 342.79365,62.462301 343.24365,63.587301 343.79365,63.587301 C 344.34365,63.587301 344.79365,62.462301 344.79365,61.087301 z M 341.47676,59.399801 C 341.15754,58.602068 340.92058,58.839025 340.8726,60.003968 C 340.82918,61.058134 341.06553,61.648759 341.39782,61.316468 C 341.73011,60.984176 341.76563,60.121676 341.47676,59.399801 z M 353.79365,59.072203 C 353.79365,56.540846 350.10927,46.261909 349.05722,45.858202 C 346.51552,44.88286 346.55186,46.498998 349.17216,50.970199 C 350.61398,53.430482 351.79365,56.375809 351.79365,57.515371 C 351.79365,58.654932 352.24365,59.587301 352.79365,59.587301 C 353.34365,59.587301 353.79365,59.355507 353.79365,59.072203 z M 371.79365,45.587301 C 371.79365,45.037301 371.59521,44.587301 371.35267,44.587301 C 371.11013,44.587301 370.63357,45.037301 370.29365,45.587301 C 369.95373,46.137301 370.15217,46.587301 370.73463,46.587301 C 371.31709,46.587301 371.79365,46.137301 371.79365,45.587301 z M 376.72336,41.278284 C 376.76202,40.283325 376.34365,39.747382 375.79365,40.087301 C 375.24365,40.42722 374.82528,42.141277 374.86394,43.896318 C 374.94049,47.37202 376.57608,45.069151 376.72336,41.278284 z M 381.08839,39.716217 C 381.45334,36.802161 381.30249,35.678466 380.63582,36.345132 C 380.08582,36.895132 379.38948,39.31212 379.08839,41.716217 C 378.72344,44.630273 378.8743,45.753968 379.54096,45.087301 C 380.09096,44.537301 380.78731,42.120313 381.08839,39.716217 z M 417.1892,41.336358 C 422.94941,32.848204 427.71648,18.587301 424.79365,18.587301 C 424.24365,18.587301 423.79365,20.158256 423.79365,22.078311 C 423.79365,24.318801 422.00259,29.013674 418.79365,35.184737 C 412.57976,47.134555 412.15859,48.749369 417.1892,41.336358 z M 348.21881,42.466204 C 347.57075,41.417619 345.79365,42.259379 345.79365,43.614933 C 345.79365,44.115212 346.46607,44.266501 347.28791,43.951131 C 348.10975,43.635761 348.52865,42.967544 348.21881,42.466204 z M 386.79365,33.478097 C 386.79365,30.101294 385.07322,31.482267 384.47744,35.337301 C 384.15868,37.399801 383.61634,40.212301 383.27222,41.587301 C 382.92811,42.962301 383.57966,42.125659 384.72011,39.728097 C 385.86056,37.330535 386.79365,34.518035 386.79365,33.478097 z M 389.14287,38.837301 C 391.37715,31.808747 392.07867,27.587301 391.0124,27.587301 C 390.49531,27.587301 389.79651,29.915342 389.45952,32.760726 C 389.12252,35.606109 388.38484,38.396109 387.82023,38.960726 C 386.83117,39.949786 386.35397,43.587301 387.21328,43.587301 C 387.44408,43.587301 388.3124,41.449801 389.14287,38.837301 z M 410.23747,39.337301 C 411.19863,36.999801 412.78155,33.287146 413.75506,31.086956 C 416.10771,25.769815 417.20809,20.587301 415.9844,20.587301 C 415.45191,20.587301 414.71444,22.19598 414.34559,24.162142 C 413.97673,26.128305 412.12665,31.134485 410.2343,35.286986 C 406.42728,43.64093 406.44403,43.587301 407.64178,43.587301 C 408.10824,43.587301 409.27631,41.674801 410.23747,39.337301 z M 393.69909,37.837301 C 396.19051,28.873615 396.58396,26.575738 395.71886,26.041076 C 395.24224,25.746512 394.5979,26.761409 394.28699,28.296403 C 393.97607,29.831397 393.06288,33.376852 392.25767,36.175193 C 390.56775,42.048147 390.5113,42.587301 391.58625,42.587301 C 392.02217,42.587301 392.97295,40.449801 393.69909,37.837301 z M 407.28308,24.7734 C 407.70149,23.10632 407.5004,22.518385 406.61297,22.814194 C 405.91562,23.046645 405.05348,24.553187 404.6971,26.162066 C 404.34072,27.770945 402.87105,31.562301 401.43117,34.587301 C 399.99128,37.612301 398.81633,40.762301 398.82016,41.587301 C 398.8283,43.337121 406.399,28.295857 407.28308,24.7734 z M 408.33296,33.587301 C 408.66664,32.762301 409.5818,30.609534 410.36665,28.803374 C 412.01372,25.013014 412.25724,21.182754 410.79365,22.087301 C 410.24365,22.42722 409.79365,23.653907 409.79365,24.813272 C 409.79365,25.972637 408.21865,29.78657 406.29365,33.288678 C 402.30744,40.540705 401.473,45.297307 405.27641,39.087301 C 406.62384,36.887301 407.99929,34.412301 408.33296,33.587301 z M 396.79365,39.127581 C 396.79365,38.389653 397.91425,35.378711 399.28388,32.436598 C 400.65351,29.494484 401.77851,26.487301 401.78388,25.753968 C 401.80176,23.314343 399.35596,25.191206 398.64582,28.162066 C 398.26124,29.770945 397.25693,32.887301 396.41401,35.087301 C 394.61831,39.774054 394.39303,41.952933 395.79365,41.087301 C 396.34365,40.747382 396.79365,39.865508 396.79365,39.127581 z M 370.79365,36.709746 C 370.79365,35.398397 368.20867,33.505612 367.45164,34.262644 C 366.0826,35.631685 366.87199,37.587301 368.79365,37.587301 C 369.89365,37.587301 370.79365,37.192401 370.79365,36.709746 z M 417.92873,32.337301 C 420.63773,27.045627 421.78667,22.194046 420.73414,20.491015 C 420.18143,19.596712 419.73629,20.11063 419.30631,22.139456 C 418.9627,23.760771 417.80678,27.011839 416.73761,29.364052 C 413.3614,36.791797 414.36536,39.297868 417.92873,32.337301 z M 376.64646,31.587301 C 377.76537,31.587301 377.8912,31.284848 377.10101,30.49466 C 375.25551,28.649164 371.85457,31.104237 372.5536,33.777341 C 373.13315,35.993558 373.13315,35.993558 374.11622,33.79043 C 374.6569,32.578709 375.79551,31.587301 376.64646,31.587301 z M 367.6132,29.347517 C 367.28523,27.0487 364.82465,25.97769 362.19211,26.987891 C 359.78516,27.911525 362.34756,31.587301 365.39838,31.587301 C 367.45164,31.587301 367.87209,31.162111 367.6132,29.347517 z M 375.27478,26.60815 C 376.8905,24.822806 376.90819,24.568484 375.45547,24.011023 C 373.57779,23.29049 370.94385,25.537894 371.54663,27.34623 C 372.13238,29.103505 373.2095,28.890264 375.27478,26.60815 z M 364.79365,22.587301 C 364.79365,21.253968 364.12698,20.587301 362.79365,20.587301 C 360.86646,20.587301 360.08375,22.54407 361.46032,23.920634 C 362.83688,25.297198 364.79365,24.514491 364.79365,22.587301 z M 371.23695,22.364795 C 372.73807,20.221635 373.37262,16.587301 372.24568,16.587301 C 371.25293,16.587301 366.85752,22.060855 366.82525,23.337301 C 366.77372,25.375465 369.5581,24.761682 371.23695,22.364795 z M 358.77834,20.837301 C 358.76992,19.874801 358.34412,18.424912 357.83213,17.615326 C 356.65515,15.754227 355.2362,18.692217 356.15528,21.087301 C 356.94819,23.153607 358.79706,22.977394 358.77834,20.837301 z M 388.54365,13.571988 C 390.60615,13.563566 392.96865,13.120457 393.79365,12.587301 C 396.38435,10.913061 389.29058,11.404665 384.7724,13.212481 C 380.41406,14.956343 378.13787,14.271203 381.09822,12.106541 C 382.44763,11.119828 382.5727,10.654261 381.59665,10.251123 C 379.3465,9.3217413 383.43993,6.8674333 388.50764,6.1074823 C 391.39716,5.6741733 392.65149,5.1174773 391.85185,4.6232693 C 389.53483,3.1912743 380.16778,6.0197193 378.80707,8.5622293 C 375.21248,15.278774 376.52406,21.856896 380.63763,17.743319 C 384.0231,14.357849 385.48892,13.584462 388.54365,13.571988 z M 368.79365,16.052117 C 368.79365,13.843165 368.37842,13.587301 364.79365,13.587301 C 362.59365,13.587301 360.79365,14.037301 360.79365,14.587301 C 360.79365,15.542108 362.86234,16.01013 365.54365,15.661947 C 366.23115,15.572671 366.79365,15.969354 366.79365,16.543464 C 366.79365,17.117574 366.11865,17.587301 365.29365,17.587301 C 363.75176,17.587301 363.30613,18.766452 364.42513,19.885451 C 365.70469,21.165007 368.79365,18.454473 368.79365,16.052117 z M 372.39782,12.858134 C 371.3813,11.841619 370.54257,13.372026 371.3766,14.721516 C 372.00663,15.740933 372.24218,15.741722 372.5809,14.725547 C 372.8125,14.030762 372.73011,13.190426 372.39782,12.858134 z M 388.79365,308.5873 C 387.41865,307.51176 385.58335,306.62177 384.7152,306.60954 C 382.74576,306.58179 368.27482,297.26024 369.54428,296.83709 C 370.05387,296.66723 373.57381,298.34153 377.36636,300.55777 C 381.15891,302.77401 384.64807,304.5873 385.12005,304.5873 C 385.59203,304.5873 387.12236,305.4873 388.52078,306.5873 C 389.9192,307.6873 391.90268,308.5873 392.92851,308.5873 C 393.95434,308.5873 394.79365,309.0373 394.79365,309.5873 C 394.79365,311.23302 391.46725,310.67862 388.79365,308.5873 z M 314.72713,283.64333 C 311.11555,281.13751 307.06555,278.11269 305.72713,276.92151 C 304.38872,275.73032 301.33857,273.14282 298.94904,271.17151 C 296.5595,269.20019 295.06242,267.5873 295.62219,267.5873 C 296.47122,267.5873 306.51339,275.13 319.27279,285.3513 C 324.31464,289.39024 321.46899,288.32102 314.72713,283.64333 z M 351.68438,285.09701 C 349.26948,283.17734 346.95964,281.60234 346.55142,281.59701 C 346.00926,281.58992 319.10345,265.17535 315.87698,262.8833 C 315.64782,262.7205 315.73976,262.30786 316.0813,261.96632 C 316.69699,261.35063 320.47271,263.57178 341.78536,277.0873 C 347.85643,280.9373 354.50442,285.0924 356.55866,286.32085 C 359.51658,288.08971 359.85481,288.55782 358.18438,288.57085 C 357.02428,288.5799 354.09928,287.01667 351.68438,285.09701 z M 395.04365,284.59835 C 392.15615,282.40916 389.79365,280.79173 389.79365,281.00405 C 389.79365,281.21637 383.83115,278.34933 376.54365,274.63285 C 369.25615,270.91637 362.61865,267.64735 361.79365,267.36836 C 360.96865,267.08937 360.65759,266.47306 361.1024,265.99879 C 361.80567,265.24894 390.45951,278.82533 391.79365,280.54052 C 392.06865,280.89406 394.43115,282.41819 397.04365,283.92747 C 399.65615,285.43674 401.79365,287.10264 401.79365,287.62945 C 401.79365,289.29635 400.43624,288.6868 395.04365,284.59835 z M 346.19259,258.95896 C 343.49817,257.51338 336.70845,253.94787 331.10432,251.03561 C 325.50019,248.12334 316.05019,243.05267 310.10432,239.76743 C 304.15845,236.4822 298.16865,233.46367 296.79365,233.05959 C 295.41865,232.65552 293.16865,231.54833 291.79365,230.59918 C 290.41865,229.65002 284.67404,226.44893 279.02786,223.48564 C 273.38167,220.52234 269.15378,217.96726 269.63255,217.80767 C 270.11131,217.64808 275.21677,220.00113 280.97802,223.03667 C 286.73928,226.07221 293.41983,229.24977 295.82369,230.0979 C 298.22756,230.94603 300.8917,232.25605 301.744,233.00904 C 302.59631,233.76204 314.30846,240.01963 327.77101,246.9148 C 349.35614,257.97015 355.3356,261.5873 352.02592,261.5873 C 351.51201,261.5873 348.88701,260.40455 346.19259,258.95896 z M 288.67851,245.7667 C 287.36684,244.76537 282.69365,241.75227 278.29365,239.07093 C 270.13504,234.0991 252.79365,221.73555 252.79365,220.8907 C 252.79365,220.40956 259.90266,224.54324 260.79365,225.54247 C 261.06865,225.85087 264.44365,228.16187 268.29365,230.67802 C 287.02858,242.92215 292.79365,246.8051 292.79365,247.17951 C 292.79365,248.11589 290.90757,247.46836 288.67851,245.7667 z M 262.29365,239.03086 C 260.64365,237.65958 258.84365,236.20531 258.29365,235.79916 C 257.74365,235.393 253.41711,231.89954 248.67911,228.03591 C 243.94111,224.17228 238.99111,220.26437 237.67911,219.35167 C 236.36711,218.43896 235.75073,217.6686 236.30938,217.63975 C 237.21505,217.59298 262.087,236.62337 265.75794,240.17186 C 268.2531,242.58379 265.46301,241.66485 262.29365,239.03086 z M 248.79365,218.52828 C 248.79365,217.94582 249.24365,217.74738 249.79365,218.0873 C 250.34365,218.42722 250.79365,218.90378 250.79365,219.14632 C 250.79365,219.38886 250.34365,219.5873 249.79365,219.5873 C 249.24365,219.5873 248.79365,219.11074 248.79365,218.52828 z M 235.25922,209.50423 C 228.67816,205.05854 222.84365,200.93652 222.29365,200.34419 C 220.92394,198.86907 228.48744,203.34572 232.79365,206.55889 C 234.71865,207.99527 238.88115,210.91407 242.04365,213.04511 C 247.14207,216.48067 248.47367,217.5873 247.50922,217.5873 C 247.35279,217.5873 241.84029,213.94992 235.25922,209.50423 z M 377.29365,215.01322 C 374.54365,214.24583 371.73269,213.82135 371.04708,214.06993 C 369.69242,214.56109 343.01045,209.13744 342.04838,208.17536 C 340.61142,206.73841 342.93022,206.72519 349.36263,208.13366 C 353.17469,208.96836 361.819,210.52927 368.5722,211.60233 C 375.32541,212.67539 382.07541,214.21797 383.5722,215.03029 C 387.16259,216.9788 384.30971,216.97105 377.29365,215.01322 z M 224.55943,208.52721 C 221.29365,205.46712 221.29365,205.46712 225.03127,207.77721 C 227.08696,209.04776 228.77446,210.4248 228.78127,210.8373 C 228.80299,212.15329 227.90464,211.66173 224.55943,208.52721 z M 326.29365,204.53917 C 320.24365,202.97967 309.89365,200.11382 303.29365,198.17062 C 296.69365,196.22743 288.81865,194.1518 285.79365,193.55812 C 276.51553,191.73723 259.74111,187.30651 260.2393,186.80831 C 260.4982,186.54942 265.79134,187.5369 272.00184,189.00272 C 292.34643,193.8045 328.19099,202.68253 333.15848,204.15008 C 335.83414,204.94055 338.64664,205.5873 339.40848,205.5873 C 340.17033,205.5873 340.79365,206.0373 340.79365,206.5873 C 340.79365,208.02533 338.63518,207.72044 326.29365,204.53917 z M 213.75959,200.70795 C 207.28702,195.82359 202.84936,191.5873 204.20542,191.5873 C 204.60237,191.5873 206.58462,193.1584 208.6104,195.07863 C 210.63619,196.99886 212.58146,198.57386 212.93323,198.57863 C 213.72314,198.58934 221.50139,205.53187 220.75959,205.5641 C 220.46586,205.57686 217.31586,203.39159 213.75959,200.70795 z M 225.44929,195.4708 C 223.33488,194.35534 221.84871,193.1989 222.14669,192.90093 C 222.67667,192.37094 229.79365,196.34307 229.79365,197.16886 C 229.79365,197.75506 229.73791,197.73328 225.44929,195.4708 z M 207.65443,190.53084 C 205.79913,188.9147 205.72188,188.69341 207.29365,189.49735 C 210.68592,191.23246 212.34781,192.55595 211.15443,192.57199 C 210.52787,192.58041 208.95287,191.66189 207.65443,190.53084 z M 197.89594,188.3373 C 190.04429,182.09355 187.98315,180.59725 186.39417,179.9875 C 184.36139,179.20745 184.30904,177.5873 186.31662,177.5873 C 188.1849,177.5873 204.02657,186.68771 203.34491,187.36938 C 203.07605,187.63824 201.67798,187.0863 200.23809,186.14286 C 196.40721,183.63276 196.26213,184.83033 199.95921,188.44491 C 204.12783,192.5205 203.08821,192.46628 197.89594,188.3373 z M 251.38293,184.73176 C 251.09211,184.26121 251.96556,184.08867 253.32391,184.34833 C 254.68227,184.608 255.79365,184.99299 255.79365,185.20388 C 255.79365,185.97763 251.89501,185.56032 251.38293,184.73176 z M 234.79365,181.52618 C 209.14564,175.43575 199.70488,172.7446 209.29365,174.25725 C 216.44785,175.38583 236.53512,180.34219 238.43887,181.44856 C 240.56399,182.68359 239.74147,182.7011 234.79365,181.52618 z M 194.29365,172.5873 C 191.63402,171.44442 195.8022,171.44442 200.29365,172.5873 C 203.29365,173.35067 203.29365,173.35067 199.79365,173.3987 C 197.86865,173.42512 195.39365,173.05999 194.29365,172.5873 z M 275.79365,130.16976 C 275.79365,129.94012 280.18115,128.30926 285.54365,126.54563 C 290.90615,124.782 297.31865,122.53007 299.79365,121.54135 C 311.5053,116.86274 320.89245,113.5905 322.51139,113.62223 C 325.28121,113.67653 305.81507,121.30737 290.4536,126.18908 C 275.96459,130.79353 275.79365,130.83995 275.79365,130.16976 z M 254.6978,108.95211 C 260.55343,103.81358 263.02953,102.51121 259.29365,106.53481 C 257.64365,108.31188 254.94365,110.45234 253.29365,111.29139 C 250.82918,112.54459 251.07984,112.12701 254.6978,108.95211 z M 263.81371,102.06313 C 264.50943,101.22484 265.28459,100.7449 265.53629,100.9966 C 266.22978,101.6901 264.82074,103.5873 263.61219,103.5873 C 262.94909,103.5873 263.02496,103.01352 263.81371,102.06313 z M 270.79365,97.437397 C 272.71865,96.273487 275.56652,94.441447 277.12226,93.366197 C 278.678,92.290937 280.18965,91.649967 280.48148,91.941797 C 281.16515,92.625467 270.30622,99.592707 268.59169,99.570447 C 267.87777,99.561187 268.86865,98.601307 270.79365,97.437397 z M 291.29365,84.098717 C 295.60525,80.362527 312.92034,68.380657 313.36515,68.825467 C 314.00886,69.469177 300.1228,79.577487 291.29298,84.892827 C 288.29365,86.698347 288.29365,86.698347 291.29365,84.098717 z "
     id="path5640" />
</svg>
